# xmcd CD database file
#
# Track frame offsets:
#	150
#	16192
#	33550
#	54840
#	75287
#	96515
#	115672
#	130752
#	148620
#	164927
#	182750
#	200335
#	217422
#
# Disc length: 3204 seconds
#
# Revision: 1
# Processed by: cddbd v1.5.2PL0 Copyright (c) Steve Scherf et al.
# Submitted via: CDex 1.70beta2
#
DISCID=b60c820d
DTITLE=Phillip Namanworth and Always Somethin' - Waitin' On A Train
DYEAR=2007
DGENRE=Jazz
TTITLE0=Burnin' With My Love's Desire
TTITLE1=What Do I Know About Love?
TTITLE2=I Wanna Stay With You
TTITLE3=Man In Transition
TTITLE4=Waitin' On A Train
TTITLE5=Ain't No Harm In Prayin'
TTITLE6=Somebody Dressed Me
TTITLE7=Is It All Right Now?
TTITLE8=Is That Asking Too Much?
TTITLE9=Tryin' To Get The Balance Right
TTITLE10=I Apologize
TTITLE11=Mr. Performer
TTITLE12=Carry Me
EXTD=YEAR: 2007
EXTT0=
EXTT1=
EXTT2=
EXTT3=
EXTT4=
EXTT5=
EXTT6=
EXTT7=
EXTT8=
EXTT9=
EXTT10=
EXTT11=
EXTT12=
PLAYORDER=
